<svg xmlns="http://www.w3.org/2000/svg" width="45.533" height="45.522" viewBox="0 0 45.533 45.522">
  <path id="Path" d="M43.528,17.907l-1.64-1.639a3.41,3.41,0,0,1-1-2.411V11.509a6.859,6.859,0,0,0-6.855-6.85H31.685a3.416,3.416,0,0,1-2.414-1L27.609,2a6.87,6.87,0,0,0-9.7.02l-1.64,1.639a3.416,3.416,0,0,1-2.414,1H11.507a6.859,6.859,0,0,0-6.855,6.85v2.322a3.424,3.424,0,0,1-1,2.436L1.987,17.932a6.88,6.88,0,0,0,.023,9.7l1.64,1.616a3.506,3.506,0,0,1,1,2.438v2.343a6.863,6.863,0,0,0,6.855,6.855h2.346a3.411,3.411,0,0,1,2.414,1l1.663,1.664a6.9,6.9,0,0,0,4.851,1.978,6.818,6.818,0,0,0,4.851-2l1.64-1.639a3.411,3.411,0,0,1,2.414-1h2.346a6.863,6.863,0,0,0,6.855-6.855V31.683a3.412,3.412,0,0,1,1-2.416l1.617-1.616c.023-.023.046-.043.068-.068a6.9,6.9,0,0,0-.046-9.676Z" fill="#d21e27"/>
</svg>
